General
Complete name                    : Notes of a Scandal.Swe_Sub.avi
Format                           : AVI
File size                        : 704 MiB
Duration                         : 1h 28mn
Overall bit rate                 : 1 118 Kbps
Writing application              : VirtualDubMod 1.5.4.1 (build 2178/release)
Writing library                  : VirtualDubMod build 2178/release

Video
ID                               : 0
Format                           : MPEG-4 Visual
Codec ID/Hint                    : XviD
Duration                         : 1h 28mn
Bit rate                         : 992 Kbps
Width                            : 608 pixels
Height                           : 336 pixels
Display aspect ratio             : 16:9
Frame rate                       : 25.000 fps
Resolution                       : 8 bits
Colorimetry                      : 4:2:0
Scan type                        : Progressive
Bits/(Pixel*Frame)               : 0.194
Stream size                      : 624 MiB (89%)
Writing library                  : XviD 1.3.0.dev55

Audio
ID                               : 1
Format                           : MPEG Audio
Mode                             : Joint stereo
Format_Settings_ModeExtension    : MS Stereo
Codec ID                         : 55
Codec ID/Hint                    : MP3
Duration                         : 1h 28mn
Bit rate                         : 114 Kbps
Nominal bit rate                 : 128 Kbps
Channel(s)                       : 2 channels
Sampling rate                    : 48.0 KHz
Stream size                      : 71.5 MiB (10%)
Language                         : English

